
<svg xmlns="http://www.w3.org/2000/svg" 
     viewBox="0 0 168 168" 
     width="40" 
     height="40" 
     fill="black">
  <path d="M84,0C37.7,0,0,37.7,0,84s37.7,84,84,84s84-37.7,84-84S130.3,0,84,0z M121.8,121.8c-1.7,2.9-5.3,3.9-8.2,2.2
    c-22.5-13.4-50.9-16.4-84.4-9c-3.3,0.7-6.5-1.4-7.2-4.7c-0.7-3.3,1.4-6.5,4.7-7.2c37.2-8.1,70.8-4.6,96.6,10.5
    C122.5,115.3,123.5,118.9,121.8,121.8z M132.2,97.4c-2.1,3.4-6.6,4.4-10,2.3c-25.8-15.4-65.3-19.9-95.6-10.9c-3.8,1.1-7.8-1-8.9-4.8
    c-1.1-3.8,1-7.8,4.8-8.9c35.7-10.5,80.2-5.6,111.6,12.3C133.2,89.5,134.3,94,132.2,97.4z M133.4,72.2c-30.4-18-80.3-19.7-109.2-10.8
    c-4.3,1.3-8.9-1.1-10.2-5.4c-1.3-4.3,1.1-8.9,5.4-10.2c33.9-10.3,90.2-8.3,126.6,12.7c3.8,2.2,5.1,7.1,2.9,10.9
    C146.7,73.1,141.9,76.9,133.4,72.2z"/>
</svg>
